<svg width="100" height="46" viewBox="0 0 100 46" fill="none" xmlns="http://www.w3.org/2000/svg">
<path fill-rule="evenodd" clip-rule="evenodd" d="M44.4821 2.01547L24.8797 36.0683H34.2533C34.2533 36.0683 35.3092 35.917 36.3407 35.3535C37.3723 34.7901 38.325 33.4295 38.325 33.4295L57.5987 0.00497226H49.006C49.006 0.00497226 47.5529 -0.0857248 46.3672 0.507597C45.1816 1.10092 44.4821 2.01547 44.4821 2.01547ZM0 45.9951L25.1312 2.3924C25.1312 2.3924 25.7595 1.26083 26.8904 0.632883C28.0213 0.00493184 29.0266 0.00493184 29.0266 0.00493184H38.3252L13.2605 43.482C13.2605 43.482 12.6913 44.4873 11.3091 45.2412C9.92684 45.9951 8.67028 45.9951 8.67028 45.9951H0ZM38.5762 45.9951L63.7074 2.3924C63.7074 2.3924 64.3357 1.26083 65.4666 0.632883C66.5975 0.00493184 67.6028 0.00493184 67.6028 0.00493184H76.9013L51.8367 43.482C51.8367 43.482 51.2675 44.4873 49.8852 45.2412C48.503 45.9951 47.2465 45.9951 47.2465 45.9951H38.5762ZM84.0642 0.00493184H87.2057C87.2057 0.00493184 89.7188 0.0614065 91.6036 0.633213C93.4885 1.20502 95.122 2.01543 96.2529 3.02068C97.3838 4.02593 98.1113 5.03118 98.6404 6.66471C99.2872 8.66176 99.031 10.1106 98.6714 12.1436C98.6611 12.2016 98.6508 12.2602 98.6404 12.3192C98.2634 14.4554 97.2329 17.1107 96.0016 19.356C94.4649 22.1582 90.9753 27.021 85.6978 30.4137C81.0929 33.374 76.1479 35.1292 70.2421 35.817C68.5819 36.0103 65.9697 36.0683 65.9697 36.0683H63.4566L68.4829 27.1467H70.8703C70.8703 27.1467 73.6348 27.1467 76.2736 26.1414C78.122 25.4373 80.8895 24.2238 83.6873 21.1152C85.4084 19.2028 86.2004 17.8481 87.08 16.0889C87.457 15.335 88.7135 12.5706 88.0852 10.4344C88.084 10.4301 88.0825 10.4249 88.0807 10.4186C88.0439 10.2903 87.8905 9.75592 87.457 9.17784C86.1138 7.38694 82.2273 7.31506 82.2273 7.31506L80.1689 7.29299L84.0642 0.00493184Z" fill="url(#paint0_linear_287_140)"/>
<defs>
<linearGradient id="paint0_linear_287_140" x1="0" y1="22.9976" x2="99.0379" y2="22.9976" gradientUnits="userSpaceOnUse">
<stop stop-color="#0FF1FF"/>
<stop offset="1" stop-color="#217AFF"/>
</linearGradient>
</defs>
</svg>
